<svg xmlns="http://www.w3.org/2000/svg" xmlns:xlink="http://www.w3.org/1999/xlink" width="3000" zoomAndPan="magnify" viewBox="0 0 2250 1124.99995" height="1500" preserveAspectRatio="xMidYMid meet" version="1.2"><g id="a1c4e4045e"><path style=" stroke:none;fill-rule:nonzero;fill:#ff7145;fill-opacity:1;" d="M 2186.363281 691.535156 C 2127.898438 736.648438 2060.960938 770.8125 1990.753906 793.457031 C 1735.316406 875.839844 1462.328125 796.082031 1235.511719 670.21875 C 1214.164062 658.371094 1193.097656 646.019531 1172.253906 633.308594 C 563.097656 261.683594 118.660156 613.035156 0.0078125 725.679688 C 0.0078125 845.90625 0.0078125 944.816406 0.0078125 944.816406 C 0.0078125 944.816406 456.753906 348.773438 1172.253906 785.269531 C 1193.097656 797.992188 1214.164062 810.332031 1235.511719 822.179688 C 1462.328125 948.046875 1735.835938 1029.402344 1990.753906 945.425781 C 2163 888.667969 2250 785.269531 2250 785.269531 C 2250 785.179688 2250 718.929688 2250 633.308594 C 2250 648.707031 2196.507812 683.695312 2186.363281 691.535156 "/><path style=" stroke:none;fill-rule:nonzero;fill:#db5830;fill-opacity:1;" d="M 1235.511719 500.566406 C 1214.726562 487.765625 1193.097656 476.371094 1172.253906 463.65625 C 585.5 105.695312 140.984375 396.617188 0.0078125 512.910156 C 0.0078125 581.117188 0.0078125 656.882812 0.0078125 725.679688 C 118.660156 613.035156 563.097656 261.683594 1172.253906 633.308594 C 1193.097656 646.019531 1214.164062 658.371094 1235.511719 670.21875 C 1462.328125 796.082031 1735.316406 875.839844 1990.753906 793.457031 C 2060.960938 770.8125 2127.898438 736.648438 2186.363281 691.535156 C 2196.507812 683.695312 2250 648.707031 2250 633.308594 C 2250 576.90625 2250 512.121094 2250 452.269531 C 2250 452.269531 1993.5 967.519531 1235.511719 500.566406 "/><path style=" stroke:none;fill-rule:nonzero;fill:#a44528;fill-opacity:1;" d="M 1916.746094 531.257812 C 1649.597656 579.789062 1434.136719 396.878906 1215.097656 279.371094 C 955.589844 140.140625 655.902344 95.601562 368.605469 160.03125 C 191.253906 199.800781 0.0078125 302.050781 0.0078125 302.050781 C 0.0078125 302.082031 0.0078125 396.480469 0.0078125 512.910156 C 140.984375 396.617188 585.5 105.695312 1172.253906 463.65625 C 1193.097656 476.371094 1214.726562 487.765625 1235.511719 500.566406 C 1993.5 967.519531 2250 452.269531 2250 452.269531 C 2250 345.847656 2250 255.082031 2250 255.082031 C 2242.253906 275.601562 2231.253906 295.199219 2219.972656 313.929688 C 2153.203125 424.765625 2045.371094 507.890625 1916.746094 531.257812 "/><path style=" stroke:none;fill-rule:nonzero;fill:#ff7145;fill-opacity:1;" d="M 2186.363281 691.535156 C 2127.898438 736.648438 2060.960938 770.8125 1990.753906 793.457031 C 1735.316406 875.839844 1462.328125 796.082031 1235.511719 670.21875 C 1214.164062 658.371094 1193.097656 646.019531 1172.253906 633.308594 C 563.097656 261.683594 118.660156 613.035156 0.0078125 725.679688 C 0.0078125 845.90625 0.0078125 944.816406 0.0078125 944.816406 C 0.0078125 944.816406 456.753906 348.773438 1172.253906 785.269531 C 1193.097656 797.992188 1214.164062 810.332031 1235.511719 822.179688 C 1462.328125 948.046875 1735.835938 1029.402344 1990.753906 945.425781 C 2163 888.667969 2250 785.269531 2250 785.269531 C 2250 785.179688 2250 718.929688 2250 633.308594 C 2250 648.707031 2196.507812 683.695312 2186.363281 691.535156 "/><path style=" stroke:none;fill-rule:nonzero;fill:#db5830;fill-opacity:1;" d="M 1235.511719 500.566406 C 1214.726562 487.765625 1193.097656 476.371094 1172.253906 463.65625 C 585.5 105.695312 140.984375 396.617188 0.0078125 512.910156 C 0.0078125 581.117188 0.0078125 656.882812 0.0078125 725.679688 C 118.660156 613.035156 563.097656 261.683594 1172.253906 633.308594 C 1193.097656 646.019531 1214.164062 658.371094 1235.511719 670.21875 C 1462.328125 796.082031 1735.316406 875.839844 1990.753906 793.457031 C 2060.960938 770.8125 2127.898438 736.648438 2186.363281 691.535156 C 2196.507812 683.695312 2250 648.707031 2250 633.308594 C 2250 576.90625 2250 512.121094 2250 452.269531 C 2250 452.269531 1993.5 967.519531 1235.511719 500.566406 "/><path style=" stroke:none;fill-rule:nonzero;fill:#a44528;fill-opacity:1;" d="M 1916.746094 531.257812 C 1649.597656 579.789062 1434.136719 396.878906 1215.097656 279.371094 C 955.589844 140.140625 655.902344 95.601562 368.605469 160.03125 C 191.253906 199.800781 0.0078125 302.050781 0.0078125 302.050781 C 0.0078125 302.082031 0.0078125 396.480469 0.0078125 512.910156 C 140.984375 396.617188 585.5 105.695312 1172.253906 463.65625 C 1193.097656 476.371094 1214.726562 487.765625 1235.511719 500.566406 C 1993.5 967.519531 2250 452.269531 2250 452.269531 C 2250 345.847656 2250 255.082031 2250 255.082031 C 2242.253906 275.601562 2231.253906 295.199219 2219.972656 313.929688 C 2153.203125 424.765625 2045.371094 507.890625 1916.746094 531.257812 "/><path style=" stroke:none;fill-rule:nonzero;fill:#ff7145;fill-opacity:1;" d="M 2186.363281 691.535156 C 2127.898438 736.648438 2060.960938 770.8125 1990.753906 793.457031 C 1735.316406 875.839844 1462.328125 796.082031 1235.511719 670.21875 C 1214.164062 658.371094 1193.097656 646.019531 1172.253906 633.308594 C 563.097656 261.683594 118.660156 613.035156 0.0078125 725.679688 C 0.0078125 845.90625 0.0078125 944.816406 0.0078125 944.816406 C 0.0078125 944.816406 456.753906 348.773438 1172.253906 785.269531 C 1193.097656 797.992188 1214.164062 810.332031 1235.511719 822.179688 C 1462.328125 948.046875 1735.835938 1029.402344 1990.753906 945.425781 C 2163 888.667969 2250 785.269531 2250 785.269531 C 2250 785.179688 2250 718.929688 2250 633.308594 C 2250 648.707031 2196.507812 683.695312 2186.363281 691.535156 "/><path style=" stroke:none;fill-rule:nonzero;fill:#db5830;fill-opacity:1;" d="M 1235.511719 500.566406 C 1214.726562 487.765625 1193.097656 476.371094 1172.253906 463.65625 C 585.5 105.695312 140.984375 396.617188 0.0078125 512.910156 C 0.0078125 581.117188 0.0078125 656.882812 0.0078125 725.679688 C 118.660156 613.035156 563.097656 261.683594 1172.253906 633.308594 C 1193.097656 646.019531 1214.164062 658.371094 1235.511719 670.21875 C 1462.328125 796.082031 1735.316406 875.839844 1990.753906 793.457031 C 2060.960938 770.8125 2127.898438 736.648438 2186.363281 691.535156 C 2196.507812 683.695312 2250 648.707031 2250 633.308594 C 2250 576.90625 2250 512.121094 2250 452.269531 C 2250 452.269531 1993.5 967.519531 1235.511719 500.566406 "/><path style=" stroke:none;fill-rule:nonzero;fill:#a44528;fill-opacity:1;" d="M 1916.746094 531.257812 C 1649.597656 579.789062 1434.136719 396.878906 1215.097656 279.371094 C 955.589844 140.140625 655.902344 95.601562 368.605469 160.03125 C 191.253906 199.800781 0.0078125 302.050781 0.0078125 302.050781 C 0.0078125 302.082031 0.0078125 396.480469 0.0078125 512.910156 C 140.984375 396.617188 585.5 105.695312 1172.253906 463.65625 C 1193.097656 476.371094 1214.726562 487.765625 1235.511719 500.566406 C 1993.5 967.519531 2250 452.269531 2250 452.269531 C 2250 345.847656 2250 255.082031 2250 255.082031 C 2242.253906 275.601562 2231.253906 295.199219 2219.972656 313.929688 C 2153.203125 424.765625 2045.371094 507.890625 1916.746094 531.257812 "/></g></svg>