<svg xmlns="http://www.w3.org/2000/svg" xmlns:xlink="http://www.w3.org/1999/xlink" width="3000" zoomAndPan="magnify" viewBox="0 0 2250 1124.99995" height="1500" preserveAspectRatio="xMidYMid meet" version="1.2"><defs><filter x="0%" y="0%" width="100%" filterUnits="objectBoundingBox" id="e222c81647" height="100%"><feColorMatrix values="0 0 0 0 1 0 0 0 0 1 0 0 0 0 1 0 0 0 1 0" type="matrix" in="SourceGraphic"/></filter><clipPath id="28b57d91c7"><path d="M 1.636719 322 L 501 322 L 501 822 L 1.636719 822 Z M 1.636719 322 "/></clipPath><clipPath id="5507354f8c"><path d="M 1678 322 L 2178.132812 322 L 2178.132812 822 L 1678 822 Z M 1678 322 "/></clipPath><clipPath id="db29118982"><path d="M 158 1.679688 L 345 1.679688 L 345 189 L 158 189 Z M 158 1.679688 "/></clipPath><clipPath id="dec25332c2"><path d="M 1835 900 L 2022 900 L 2022 1087.441406 L 1835 1087.441406 Z M 1835 900 "/></clipPath><clipPath id="58db2cd466"><rect x="0" width="2180" y="0" height="1088"/></clipPath><clipPath id="7a866d6088"><path d="M 1.636719 322 L 501 322 L 501 822 L 1.636719 822 Z M 1.636719 322 "/></clipPath><clipPath id="ba1c3010bc"><path d="M 1678 322 L 2178.132812 322 L 2178.132812 822 L 1678 822 Z M 1678 322 "/></clipPath><clipPath id="483c4f1789"><path d="M 158 1.679688 L 345 1.679688 L 345 189 L 158 189 Z M 158 1.679688 "/></clipPath><clipPath id="b35f1d3930"><path d="M 1835 900 L 2022 900 L 2022 1087.441406 L 1835 1087.441406 Z M 1835 900 "/></clipPath><clipPath id="14c98e44c3"><rect x="0" width="2180" y="0" height="1088"/></clipPath><clipPath id="8328705a00"><path d="M 1.636719 322 L 501 322 L 501 822 L 1.636719 822 Z M 1.636719 322 "/></clipPath><clipPath id="10cfa51eef"><path d="M 1678 322 L 2178.132812 322 L 2178.132812 822 L 1678 822 Z M 1678 322 "/></clipPath><clipPath id="04d4f6c356"><path d="M 158 1.679688 L 345 1.679688 L 345 189 L 158 189 Z M 158 1.679688 "/></clipPath><clipPath id="361733dabc"><path d="M 1835 900 L 2022 900 L 2022 1087.441406 L 1835 1087.441406 Z M 1835 900 "/></clipPath><clipPath id="2c9f217d67"><rect x="0" width="2180" y="0" height="1088"/></clipPath></defs><g id="d476516eb5"><g mask="url(#b389762b29)" transform="matrix(1,0,0,1,35,18)"><g clip-path="url(#58db2cd466)"><g clip-rule="nonzero" clip-path="url(#28b57d91c7)"><path style=" stroke:none;fill-rule:nonzero;fill:#ff7145;fill-opacity:1;" d="M 485.015625 739.726562 L 337.09375 575.988281 L 500.832031 428.066406 L 419.203125 337.8125 L 255.625 485.734375 L 107.703125 322.15625 L 17.289062 403.785156 L 165.210938 567.363281 L 1.636719 715.285156 L 83.261719 805.539062 L 246.839844 657.617188 L 394.761719 821.355469 Z M 485.015625 739.726562 "/></g><path style=" stroke:none;fill-rule:nonzero;fill:#ff7145;fill-opacity:1;" d="M 1051.785156 739.726562 L 903.863281 575.988281 L 1067.601562 428.066406 L 985.972656 337.8125 L 822.234375 485.734375 L 674.3125 322.15625 L 584.058594 403.785156 L 731.980469 567.363281 L 568.242188 715.285156 L 649.871094 805.539062 L 813.609375 657.617188 L 961.53125 821.355469 Z M 1051.785156 739.726562 "/><path style=" stroke:none;fill-rule:nonzero;fill:#ff7145;fill-opacity:1;" d="M 1607.054688 739.726562 L 1459.132812 575.988281 L 1622.867188 428.066406 L 1541.238281 337.8125 L 1377.503906 485.734375 L 1229.578125 322.15625 L 1139.324219 403.785156 L 1287.246094 567.363281 L 1123.671875 715.285156 L 1205.300781 805.539062 L 1368.875 657.617188 L 1516.796875 821.355469 Z M 1607.054688 739.726562 "/><g clip-rule="nonzero" clip-path="url(#5507354f8c)"><path style=" stroke:none;fill-rule:nonzero;fill:#ff7145;fill-opacity:1;" d="M 2162.320312 739.726562 L 2014.398438 575.988281 L 2178.132812 428.066406 L 2096.507812 337.8125 L 1932.929688 485.734375 L 1785.007812 322.15625 L 1694.59375 403.785156 L 1842.515625 567.363281 L 1678.9375 715.285156 L 1760.566406 805.539062 L 1924.144531 657.617188 L 2072.066406 821.355469 Z M 2162.320312 739.726562 "/></g><g clip-rule="nonzero" clip-path="url(#db29118982)"><path style=" stroke:none;fill-rule:nonzero;fill:#ff7145;fill-opacity:1;" d="M 251.152344 188.132812 C 199.875 188.132812 158.023438 146.441406 158.023438 95.003906 C 158.023438 43.566406 199.714844 1.875 251.152344 1.875 C 302.589844 1.875 344.285156 43.566406 344.285156 95.003906 C 344.285156 146.441406 302.589844 188.132812 251.152344 188.132812 Z M 251.152344 30.785156 C 215.691406 30.785156 186.777344 59.699219 186.777344 95.164062 C 186.777344 130.625 215.691406 159.539062 251.152344 159.539062 C 286.617188 159.539062 315.53125 130.625 315.53125 95.164062 C 315.53125 59.699219 286.617188 30.785156 251.152344 30.785156 Z M 251.152344 30.785156 "/></g><g clip-rule="nonzero" clip-path="url(#dec25332c2)"><path style=" stroke:none;fill-rule:nonzero;fill:#ff7145;fill-opacity:1;" d="M 1928.457031 1087.007812 C 1877.179688 1087.007812 1835.324219 1045.316406 1835.324219 993.878906 C 1835.324219 942.441406 1877.019531 900.746094 1928.457031 900.746094 C 1979.894531 900.746094 2021.585938 942.441406 2021.585938 993.878906 C 2021.585938 1045.316406 1979.894531 1087.007812 1928.457031 1087.007812 Z M 1928.457031 929.660156 C 1892.992188 929.660156 1864.078125 958.574219 1864.078125 994.039062 C 1864.078125 1029.5 1892.992188 1058.414062 1928.457031 1058.414062 C 1963.917969 1058.414062 1992.832031 1029.5 1992.832031 994.039062 C 1992.832031 958.414062 1963.917969 929.660156 1928.457031 929.660156 Z M 1928.457031 929.660156 "/></g><path style=" stroke:none;fill-rule:nonzero;fill:#ff7145;fill-opacity:1;" d="M 818.082031 993.878906 C 818.082031 995.667969 817.996094 997.453125 817.820312 999.234375 C 817.644531 1001.011719 817.382812 1002.78125 817.03125 1004.535156 C 816.683594 1006.289062 816.25 1008.023438 815.730469 1009.738281 C 815.210938 1011.449219 814.609375 1013.132812 813.921875 1014.785156 C 813.238281 1016.4375 812.476562 1018.054688 811.632812 1019.632812 C 810.789062 1021.210938 809.867188 1022.742188 808.875 1024.230469 C 807.878906 1025.71875 806.816406 1027.152344 805.679688 1028.535156 C 804.546875 1029.917969 803.347656 1031.242188 802.082031 1032.507812 C 800.816406 1033.773438 799.492188 1034.972656 798.109375 1036.109375 C 796.726562 1037.246094 795.289062 1038.308594 793.800781 1039.304688 C 792.3125 1040.296875 790.78125 1041.214844 789.203125 1042.058594 C 787.625 1042.902344 786.007812 1043.667969 784.355469 1044.351562 C 782.703125 1045.035156 781.019531 1045.636719 779.308594 1046.15625 C 777.597656 1046.675781 775.863281 1047.109375 774.109375 1047.460938 C 772.351562 1047.808594 770.585938 1048.070312 768.804688 1048.246094 C 767.023438 1048.421875 765.238281 1048.511719 763.449219 1048.511719 C 761.660156 1048.511719 759.875 1048.421875 758.09375 1048.246094 C 756.3125 1048.070312 754.546875 1047.808594 752.792969 1047.460938 C 751.035156 1047.109375 749.304688 1046.675781 747.589844 1046.15625 C 745.878906 1045.636719 744.195312 1045.035156 742.542969 1044.351562 C 740.890625 1043.667969 739.273438 1042.902344 737.695312 1042.058594 C 736.117188 1041.214844 734.585938 1040.296875 733.097656 1039.304688 C 731.609375 1038.308594 730.175781 1037.246094 728.792969 1036.109375 C 727.410156 1034.972656 726.085938 1033.773438 724.820312 1032.507812 C 723.554688 1031.242188 722.351562 1029.917969 721.21875 1028.535156 C 720.082031 1027.152344 719.019531 1025.71875 718.023438 1024.230469 C 717.03125 1022.742188 716.113281 1021.210938 715.269531 1019.632812 C 714.425781 1018.054688 713.660156 1016.4375 712.976562 1014.785156 C 712.292969 1013.132812 711.6875 1011.449219 711.167969 1009.738281 C 710.652344 1008.023438 710.214844 1006.289062 709.867188 1004.535156 C 709.519531 1002.78125 709.257812 1001.011719 709.082031 999.234375 C 708.90625 997.453125 708.816406 995.667969 708.816406 993.878906 C 708.816406 992.089844 708.90625 990.304688 709.082031 988.523438 C 709.257812 986.742188 709.519531 984.976562 709.867188 983.21875 C 710.214844 981.464844 710.652344 979.730469 711.171875 978.019531 C 711.6875 976.308594 712.292969 974.625 712.976562 972.972656 C 713.660156 971.316406 714.425781 969.703125 715.269531 968.125 C 716.113281 966.546875 717.03125 965.011719 718.023438 963.527344 C 719.019531 962.039062 720.082031 960.601562 721.21875 959.21875 C 722.351562 957.835938 723.554688 956.511719 724.820312 955.246094 C 726.085938 953.980469 727.40625 952.78125 728.792969 951.648438 C 730.175781 950.511719 731.609375 949.445312 733.097656 948.453125 C 734.585938 947.460938 736.117188 946.539062 737.695312 945.695312 C 739.273438 944.851562 740.890625 944.089844 742.542969 943.402344 C 744.195312 942.71875 745.878906 942.117188 747.589844 941.597656 C 749.304688 941.078125 751.035156 940.644531 752.792969 940.296875 C 754.546875 939.945312 756.3125 939.683594 758.09375 939.507812 C 759.875 939.332031 761.660156 939.246094 763.449219 939.246094 C 765.238281 939.246094 767.023438 939.332031 768.804688 939.507812 C 770.585938 939.683594 772.351562 939.945312 774.109375 940.296875 C 775.863281 940.644531 777.597656 941.078125 779.308594 941.597656 C 781.019531 942.117188 782.703125 942.71875 784.355469 943.40625 C 786.007812 944.089844 787.625 944.851562 789.203125 945.695312 C 790.78125 946.539062 792.3125 947.460938 793.800781 948.453125 C 795.289062 949.445312 796.726562 950.511719 798.109375 951.648438 C 799.492188 952.78125 800.816406 953.980469 802.082031 955.246094 C 803.347656 956.511719 804.546875 957.835938 805.679688 959.21875 C 806.816406 960.601562 807.878906 962.039062 808.875 963.527344 C 809.867188 965.011719 810.789062 966.546875 811.632812 968.125 C 812.472656 969.703125 813.238281 971.316406 813.921875 972.972656 C 814.609375 974.625 815.210938 976.308594 815.730469 978.019531 C 816.25 979.730469 816.683594 981.464844 817.03125 983.21875 C 817.382812 984.976562 817.644531 986.742188 817.820312 988.523438 C 817.996094 990.304688 818.082031 992.089844 818.082031 993.878906 Z M 818.082031 993.878906 "/><path style=" stroke:none;fill-rule:nonzero;fill:#ff7145;fill-opacity:1;" d="M 1568.394531 173.757812 C 1568.394531 175.546875 1568.308594 177.332031 1568.132812 179.113281 C 1567.957031 180.890625 1567.695312 182.660156 1567.34375 184.414062 C 1566.996094 186.167969 1566.5625 187.902344 1566.042969 189.617188 C 1565.523438 191.328125 1564.921875 193.011719 1564.238281 194.664062 C 1563.550781 196.316406 1562.789062 197.933594 1561.945312 199.511719 C 1561.101562 201.089844 1560.183594 202.621094 1559.1875 204.109375 C 1558.195312 205.597656 1557.128906 207.03125 1555.996094 208.414062 C 1554.859375 209.796875 1553.660156 211.121094 1552.394531 212.386719 C 1551.128906 213.652344 1549.804688 214.851562 1548.421875 215.988281 C 1547.039062 217.121094 1545.601562 218.1875 1544.113281 219.179688 C 1542.628906 220.175781 1541.09375 221.09375 1539.515625 221.9375 C 1537.9375 222.78125 1536.324219 223.546875 1534.667969 224.230469 C 1533.015625 224.914062 1531.335938 225.515625 1529.621094 226.035156 C 1527.910156 226.554688 1526.175781 226.992188 1524.421875 227.339844 C 1522.667969 227.6875 1520.898438 227.949219 1519.117188 228.125 C 1517.335938 228.300781 1515.550781 228.390625 1513.761719 228.390625 C 1511.972656 228.390625 1510.1875 228.300781 1508.40625 228.125 C 1506.628906 227.949219 1504.859375 227.6875 1503.105469 227.339844 C 1501.351562 226.992188 1499.617188 226.554688 1497.902344 226.035156 C 1496.191406 225.515625 1494.507812 224.914062 1492.855469 224.230469 C 1491.203125 223.546875 1489.585938 222.78125 1488.007812 221.9375 C 1486.429688 221.09375 1484.898438 220.175781 1483.410156 219.179688 C 1481.921875 218.1875 1480.488281 217.125 1479.105469 215.988281 C 1477.722656 214.851562 1476.398438 213.652344 1475.132812 212.386719 C 1473.867188 211.121094 1472.667969 209.796875 1471.53125 208.414062 C 1470.398438 207.03125 1469.332031 205.597656 1468.339844 204.109375 C 1467.34375 202.621094 1466.425781 201.089844 1465.582031 199.511719 C 1464.738281 197.933594 1463.972656 196.316406 1463.289062 194.664062 C 1462.605469 193.011719 1462.003906 191.328125 1461.484375 189.617188 C 1460.964844 187.902344 1460.53125 186.167969 1460.179688 184.414062 C 1459.832031 182.660156 1459.570312 180.890625 1459.394531 179.113281 C 1459.21875 177.332031 1459.132812 175.546875 1459.132812 173.757812 C 1459.132812 171.96875 1459.21875 170.183594 1459.394531 168.402344 C 1459.570312 166.621094 1459.832031 164.855469 1460.179688 163.097656 C 1460.53125 161.34375 1460.964844 159.609375 1461.484375 157.898438 C 1462.003906 156.1875 1462.605469 154.503906 1463.289062 152.851562 C 1463.972656 151.195312 1464.738281 149.582031 1465.582031 148.003906 C 1466.425781 146.425781 1467.34375 144.890625 1468.339844 143.40625 C 1469.332031 141.917969 1470.398438 140.480469 1471.53125 139.097656 C 1472.667969 137.714844 1473.867188 136.390625 1475.132812 135.125 C 1476.398438 133.859375 1477.722656 132.660156 1479.105469 131.527344 C 1480.488281 130.390625 1481.921875 129.324219 1483.410156 128.332031 C 1484.898438 127.335938 1486.429688 126.417969 1488.007812 125.574219 C 1489.585938 124.730469 1491.203125 123.96875 1492.855469 123.28125 C 1494.507812 122.597656 1496.191406 121.996094 1497.902344 121.476562 C 1499.617188 120.957031 1501.351562 120.523438 1503.105469 120.175781 C 1504.859375 119.824219 1506.628906 119.5625 1508.40625 119.386719 C 1510.1875 119.210938 1511.972656 119.125 1513.761719 119.125 C 1515.550781 119.125 1517.335938 119.210938 1519.117188 119.386719 C 1520.898438 119.5625 1522.667969 119.824219 1524.421875 120.175781 C 1526.175781 120.523438 1527.910156 120.957031 1529.621094 121.476562 C 1531.335938 121.996094 1533.015625 122.597656 1534.667969 123.28125 C 1536.324219 123.96875 1537.9375 124.730469 1539.515625 125.574219 C 1541.09375 126.417969 1542.628906 127.335938 1544.113281 128.332031 C 1545.601562 129.324219 1547.039062 130.390625 1548.421875 131.527344 C 1549.804688 132.660156 1551.128906 133.859375 1552.394531 135.125 C 1553.660156 136.390625 1554.859375 137.714844 1555.996094 139.097656 C 1557.128906 140.480469 1558.195312 141.917969 1559.1875 143.40625 C 1560.183594 144.890625 1561.101562 146.425781 1561.945312 148.003906 C 1562.789062 149.582031 1563.550781 151.195312 1564.238281 152.851562 C 1564.921875 154.503906 1565.523438 156.1875 1566.042969 157.898438 C 1566.5625 159.609375 1566.996094 161.34375 1567.34375 163.097656 C 1567.695312 164.855469 1567.957031 166.621094 1568.132812 168.402344 C 1568.308594 170.183594 1568.394531 171.96875 1568.394531 173.757812 Z M 1568.394531 173.757812 "/></g><mask id="b389762b29"><g filter="url(#e222c81647)"><rect x="0" width="2250" y="0" height="1124.99995" style="fill:#000000;fill-opacity:0.1;stroke:none;"/></g></mask></g><g mask="url(#8f2ef15c3e)" transform="matrix(1,0,0,1,35,18)"><g clip-path="url(#14c98e44c3)"><g clip-rule="nonzero" clip-path="url(#7a866d6088)"><path style=" stroke:none;fill-rule:nonzero;fill:#ff7145;fill-opacity:1;" d="M 485.015625 739.726562 L 337.09375 575.988281 L 500.832031 428.066406 L 419.203125 337.8125 L 255.625 485.734375 L 107.703125 322.15625 L 17.289062 403.785156 L 165.210938 567.363281 L 1.636719 715.285156 L 83.261719 805.539062 L 246.839844 657.617188 L 394.761719 821.355469 Z M 485.015625 739.726562 "/></g><path style=" stroke:none;fill-rule:nonzero;fill:#ff7145;fill-opacity:1;" d="M 1051.785156 739.726562 L 903.863281 575.988281 L 1067.601562 428.066406 L 985.972656 337.8125 L 822.234375 485.734375 L 674.3125 322.15625 L 584.058594 403.785156 L 731.980469 567.363281 L 568.242188 715.285156 L 649.871094 805.539062 L 813.609375 657.617188 L 961.53125 821.355469 Z M 1051.785156 739.726562 "/><path style=" stroke:none;fill-rule:nonzero;fill:#ff7145;fill-opacity:1;" d="M 1607.054688 739.726562 L 1459.132812 575.988281 L 1622.867188 428.066406 L 1541.238281 337.8125 L 1377.503906 485.734375 L 1229.578125 322.15625 L 1139.324219 403.785156 L 1287.246094 567.363281 L 1123.671875 715.285156 L 1205.300781 805.539062 L 1368.875 657.617188 L 1516.796875 821.355469 Z M 1607.054688 739.726562 "/><g clip-rule="nonzero" clip-path="url(#ba1c3010bc)"><path style=" stroke:none;fill-rule:nonzero;fill:#ff7145;fill-opacity:1;" d="M 2162.320312 739.726562 L 2014.398438 575.988281 L 2178.132812 428.066406 L 2096.507812 337.8125 L 1932.929688 485.734375 L 1785.007812 322.15625 L 1694.59375 403.785156 L 1842.515625 567.363281 L 1678.9375 715.285156 L 1760.566406 805.539062 L 1924.144531 657.617188 L 2072.066406 821.355469 Z M 2162.320312 739.726562 "/></g><g clip-rule="nonzero" clip-path="url(#483c4f1789)"><path style=" stroke:none;fill-rule:nonzero;fill:#ff7145;fill-opacity:1;" d="M 251.152344 188.132812 C 199.875 188.132812 158.023438 146.441406 158.023438 95.003906 C 158.023438 43.566406 199.714844 1.875 251.152344 1.875 C 302.589844 1.875 344.285156 43.566406 344.285156 95.003906 C 344.285156 146.441406 302.589844 188.132812 251.152344 188.132812 Z M 251.152344 30.785156 C 215.691406 30.785156 186.777344 59.699219 186.777344 95.164062 C 186.777344 130.625 215.691406 159.539062 251.152344 159.539062 C 286.617188 159.539062 315.53125 130.625 315.53125 95.164062 C 315.53125 59.699219 286.617188 30.785156 251.152344 30.785156 Z M 251.152344 30.785156 "/></g><g clip-rule="nonzero" clip-path="url(#b35f1d3930)"><path style=" stroke:none;fill-rule:nonzero;fill:#ff7145;fill-opacity:1;" d="M 1928.457031 1087.007812 C 1877.179688 1087.007812 1835.324219 1045.316406 1835.324219 993.878906 C 1835.324219 942.441406 1877.019531 900.746094 1928.457031 900.746094 C 1979.894531 900.746094 2021.585938 942.441406 2021.585938 993.878906 C 2021.585938 1045.316406 1979.894531 1087.007812 1928.457031 1087.007812 Z M 1928.457031 929.660156 C 1892.992188 929.660156 1864.078125 958.574219 1864.078125 994.039062 C 1864.078125 1029.5 1892.992188 1058.414062 1928.457031 1058.414062 C 1963.917969 1058.414062 1992.832031 1029.5 1992.832031 994.039062 C 1992.832031 958.414062 1963.917969 929.660156 1928.457031 929.660156 Z M 1928.457031 929.660156 "/></g><path style=" stroke:none;fill-rule:nonzero;fill:#ff7145;fill-opacity:1;" d="M 818.082031 993.878906 C 818.082031 995.667969 817.996094 997.453125 817.820312 999.234375 C 817.644531 1001.011719 817.382812 1002.78125 817.03125 1004.535156 C 816.683594 1006.289062 816.25 1008.023438 815.730469 1009.738281 C 815.210938 1011.449219 814.609375 1013.132812 813.921875 1014.785156 C 813.238281 1016.4375 812.476562 1018.054688 811.632812 1019.632812 C 810.789062 1021.210938 809.867188 1022.742188 808.875 1024.230469 C 807.878906 1025.71875 806.816406 1027.152344 805.679688 1028.535156 C 804.546875 1029.917969 803.347656 1031.242188 802.082031 1032.507812 C 800.816406 1033.773438 799.492188 1034.972656 798.109375 1036.109375 C 796.726562 1037.246094 795.289062 1038.308594 793.800781 1039.304688 C 792.3125 1040.296875 790.78125 1041.214844 789.203125 1042.058594 C 787.625 1042.902344 786.007812 1043.667969 784.355469 1044.351562 C 782.703125 1045.035156 781.019531 1045.636719 779.308594 1046.15625 C 777.597656 1046.675781 775.863281 1047.109375 774.109375 1047.460938 C 772.351562 1047.808594 770.585938 1048.070312 768.804688 1048.246094 C 767.023438 1048.421875 765.238281 1048.511719 763.449219 1048.511719 C 761.660156 1048.511719 759.875 1048.421875 758.09375 1048.246094 C 756.3125 1048.070312 754.546875 1047.808594 752.792969 1047.460938 C 751.035156 1047.109375 749.304688 1046.675781 747.589844 1046.15625 C 745.878906 1045.636719 744.195312 1045.035156 742.542969 1044.351562 C 740.890625 1043.667969 739.273438 1042.902344 737.695312 1042.058594 C 736.117188 1041.214844 734.585938 1040.296875 733.097656 1039.304688 C 731.609375 1038.308594 730.175781 1037.246094 728.792969 1036.109375 C 727.410156 1034.972656 726.085938 1033.773438 724.820312 1032.507812 C 723.554688 1031.242188 722.351562 1029.917969 721.21875 1028.535156 C 720.082031 1027.152344 719.019531 1025.71875 718.023438 1024.230469 C 717.03125 1022.742188 716.113281 1021.210938 715.269531 1019.632812 C 714.425781 1018.054688 713.660156 1016.4375 712.976562 1014.785156 C 712.292969 1013.132812 711.6875 1011.449219 711.167969 1009.738281 C 710.652344 1008.023438 710.214844 1006.289062 709.867188 1004.535156 C 709.519531 1002.78125 709.257812 1001.011719 709.082031 999.234375 C 708.90625 997.453125 708.816406 995.667969 708.816406 993.878906 C 708.816406 992.089844 708.90625 990.304688 709.082031 988.523438 C 709.257812 986.742188 709.519531 984.976562 709.867188 983.21875 C 710.214844 981.464844 710.652344 979.730469 711.171875 978.019531 C 711.6875 976.308594 712.292969 974.625 712.976562 972.972656 C 713.660156 971.316406 714.425781 969.703125 715.269531 968.125 C 716.113281 966.546875 717.03125 965.011719 718.023438 963.527344 C 719.019531 962.039062 720.082031 960.601562 721.21875 959.21875 C 722.351562 957.835938 723.554688 956.511719 724.820312 955.246094 C 726.085938 953.980469 727.40625 952.78125 728.792969 951.648438 C 730.175781 950.511719 731.609375 949.445312 733.097656 948.453125 C 734.585938 947.460938 736.117188 946.539062 737.695312 945.695312 C 739.273438 944.851562 740.890625 944.089844 742.542969 943.402344 C 744.195312 942.71875 745.878906 942.117188 747.589844 941.597656 C 749.304688 941.078125 751.035156 940.644531 752.792969 940.296875 C 754.546875 939.945312 756.3125 939.683594 758.09375 939.507812 C 759.875 939.332031 761.660156 939.246094 763.449219 939.246094 C 765.238281 939.246094 767.023438 939.332031 768.804688 939.507812 C 770.585938 939.683594 772.351562 939.945312 774.109375 940.296875 C 775.863281 940.644531 777.597656 941.078125 779.308594 941.597656 C 781.019531 942.117188 782.703125 942.71875 784.355469 943.40625 C 786.007812 944.089844 787.625 944.851562 789.203125 945.695312 C 790.78125 946.539062 792.3125 947.460938 793.800781 948.453125 C 795.289062 949.445312 796.726562 950.511719 798.109375 951.648438 C 799.492188 952.78125 800.816406 953.980469 802.082031 955.246094 C 803.347656 956.511719 804.546875 957.835938 805.679688 959.21875 C 806.816406 960.601562 807.878906 962.039062 808.875 963.527344 C 809.867188 965.011719 810.789062 966.546875 811.632812 968.125 C 812.472656 969.703125 813.238281 971.316406 813.921875 972.972656 C 814.609375 974.625 815.210938 976.308594 815.730469 978.019531 C 816.25 979.730469 816.683594 981.464844 817.03125 983.21875 C 817.382812 984.976562 817.644531 986.742188 817.820312 988.523438 C 817.996094 990.304688 818.082031 992.089844 818.082031 993.878906 Z M 818.082031 993.878906 "/><path style=" stroke:none;fill-rule:nonzero;fill:#ff7145;fill-opacity:1;" d="M 1568.394531 173.757812 C 1568.394531 175.546875 1568.308594 177.332031 1568.132812 179.113281 C 1567.957031 180.890625 1567.695312 182.660156 1567.34375 184.414062 C 1566.996094 186.167969 1566.5625 187.902344 1566.042969 189.617188 C 1565.523438 191.328125 1564.921875 193.011719 1564.238281 194.664062 C 1563.550781 196.316406 1562.789062 197.933594 1561.945312 199.511719 C 1561.101562 201.089844 1560.183594 202.621094 1559.1875 204.109375 C 1558.195312 205.597656 1557.128906 207.03125 1555.996094 208.414062 C 1554.859375 209.796875 1553.660156 211.121094 1552.394531 212.386719 C 1551.128906 213.652344 1549.804688 214.851562 1548.421875 215.988281 C 1547.039062 217.121094 1545.601562 218.1875 1544.113281 219.179688 C 1542.628906 220.175781 1541.09375 221.09375 1539.515625 221.9375 C 1537.9375 222.78125 1536.324219 223.546875 1534.667969 224.230469 C 1533.015625 224.914062 1531.335938 225.515625 1529.621094 226.035156 C 1527.910156 226.554688 1526.175781 226.992188 1524.421875 227.339844 C 1522.667969 227.6875 1520.898438 227.949219 1519.117188 228.125 C 1517.335938 228.300781 1515.550781 228.390625 1513.761719 228.390625 C 1511.972656 228.390625 1510.1875 228.300781 1508.40625 228.125 C 1506.628906 227.949219 1504.859375 227.6875 1503.105469 227.339844 C 1501.351562 226.992188 1499.617188 226.554688 1497.902344 226.035156 C 1496.191406 225.515625 1494.507812 224.914062 1492.855469 224.230469 C 1491.203125 223.546875 1489.585938 222.78125 1488.007812 221.9375 C 1486.429688 221.09375 1484.898438 220.175781 1483.410156 219.179688 C 1481.921875 218.1875 1480.488281 217.125 1479.105469 215.988281 C 1477.722656 214.851562 1476.398438 213.652344 1475.132812 212.386719 C 1473.867188 211.121094 1472.667969 209.796875 1471.53125 208.414062 C 1470.398438 207.03125 1469.332031 205.597656 1468.339844 204.109375 C 1467.34375 202.621094 1466.425781 201.089844 1465.582031 199.511719 C 1464.738281 197.933594 1463.972656 196.316406 1463.289062 194.664062 C 1462.605469 193.011719 1462.003906 191.328125 1461.484375 189.617188 C 1460.964844 187.902344 1460.53125 186.167969 1460.179688 184.414062 C 1459.832031 182.660156 1459.570312 180.890625 1459.394531 179.113281 C 1459.21875 177.332031 1459.132812 175.546875 1459.132812 173.757812 C 1459.132812 171.96875 1459.21875 170.183594 1459.394531 168.402344 C 1459.570312 166.621094 1459.832031 164.855469 1460.179688 163.097656 C 1460.53125 161.34375 1460.964844 159.609375 1461.484375 157.898438 C 1462.003906 156.1875 1462.605469 154.503906 1463.289062 152.851562 C 1463.972656 151.195312 1464.738281 149.582031 1465.582031 148.003906 C 1466.425781 146.425781 1467.34375 144.890625 1468.339844 143.40625 C 1469.332031 141.917969 1470.398438 140.480469 1471.53125 139.097656 C 1472.667969 137.714844 1473.867188 136.390625 1475.132812 135.125 C 1476.398438 133.859375 1477.722656 132.660156 1479.105469 131.527344 C 1480.488281 130.390625 1481.921875 129.324219 1483.410156 128.332031 C 1484.898438 127.335938 1486.429688 126.417969 1488.007812 125.574219 C 1489.585938 124.730469 1491.203125 123.96875 1492.855469 123.28125 C 1494.507812 122.597656 1496.191406 121.996094 1497.902344 121.476562 C 1499.617188 120.957031 1501.351562 120.523438 1503.105469 120.175781 C 1504.859375 119.824219 1506.628906 119.5625 1508.40625 119.386719 C 1510.1875 119.210938 1511.972656 119.125 1513.761719 119.125 C 1515.550781 119.125 1517.335938 119.210938 1519.117188 119.386719 C 1520.898438 119.5625 1522.667969 119.824219 1524.421875 120.175781 C 1526.175781 120.523438 1527.910156 120.957031 1529.621094 121.476562 C 1531.335938 121.996094 1533.015625 122.597656 1534.667969 123.28125 C 1536.324219 123.96875 1537.9375 124.730469 1539.515625 125.574219 C 1541.09375 126.417969 1542.628906 127.335938 1544.113281 128.332031 C 1545.601562 129.324219 1547.039062 130.390625 1548.421875 131.527344 C 1549.804688 132.660156 1551.128906 133.859375 1552.394531 135.125 C 1553.660156 136.390625 1554.859375 137.714844 1555.996094 139.097656 C 1557.128906 140.480469 1558.195312 141.917969 1559.1875 143.40625 C 1560.183594 144.890625 1561.101562 146.425781 1561.945312 148.003906 C 1562.789062 149.582031 1563.550781 151.195312 1564.238281 152.851562 C 1564.921875 154.503906 1565.523438 156.1875 1566.042969 157.898438 C 1566.5625 159.609375 1566.996094 161.34375 1567.34375 163.097656 C 1567.695312 164.855469 1567.957031 166.621094 1568.132812 168.402344 C 1568.308594 170.183594 1568.394531 171.96875 1568.394531 173.757812 Z M 1568.394531 173.757812 "/></g><mask id="8f2ef15c3e"><g filter="url(#e222c81647)"><rect x="0" width="2250" y="0" height="1124.99995" style="fill:#000000;fill-opacity:0.1;stroke:none;"/></g></mask></g><g mask="url(#bf8b456f4f)" transform="matrix(1,0,0,1,35,18)"><g clip-path="url(#2c9f217d67)"><g clip-rule="nonzero" clip-path="url(#8328705a00)"><path style=" stroke:none;fill-rule:nonzero;fill:#ff7145;fill-opacity:1;" d="M 485.015625 739.726562 L 337.09375 575.988281 L 500.832031 428.066406 L 419.203125 337.8125 L 255.625 485.734375 L 107.703125 322.15625 L 17.289062 403.785156 L 165.210938 567.363281 L 1.636719 715.285156 L 83.261719 805.539062 L 246.839844 657.617188 L 394.761719 821.355469 Z M 485.015625 739.726562 "/></g><path style=" stroke:none;fill-rule:nonzero;fill:#ff7145;fill-opacity:1;" d="M 1051.785156 739.726562 L 903.863281 575.988281 L 1067.601562 428.066406 L 985.972656 337.8125 L 822.234375 485.734375 L 674.3125 322.15625 L 584.058594 403.785156 L 731.980469 567.363281 L 568.242188 715.285156 L 649.871094 805.539062 L 813.609375 657.617188 L 961.53125 821.355469 Z M 1051.785156 739.726562 "/><path style=" stroke:none;fill-rule:nonzero;fill:#ff7145;fill-opacity:1;" d="M 1607.054688 739.726562 L 1459.132812 575.988281 L 1622.867188 428.066406 L 1541.238281 337.8125 L 1377.503906 485.734375 L 1229.578125 322.15625 L 1139.324219 403.785156 L 1287.246094 567.363281 L 1123.671875 715.285156 L 1205.300781 805.539062 L 1368.875 657.617188 L 1516.796875 821.355469 Z M 1607.054688 739.726562 "/><g clip-rule="nonzero" clip-path="url(#10cfa51eef)"><path style=" stroke:none;fill-rule:nonzero;fill:#ff7145;fill-opacity:1;" d="M 2162.320312 739.726562 L 2014.398438 575.988281 L 2178.132812 428.066406 L 2096.507812 337.8125 L 1932.929688 485.734375 L 1785.007812 322.15625 L 1694.59375 403.785156 L 1842.515625 567.363281 L 1678.9375 715.285156 L 1760.566406 805.539062 L 1924.144531 657.617188 L 2072.066406 821.355469 Z M 2162.320312 739.726562 "/></g><g clip-rule="nonzero" clip-path="url(#04d4f6c356)"><path style=" stroke:none;fill-rule:nonzero;fill:#ff7145;fill-opacity:1;" d="M 251.152344 188.132812 C 199.875 188.132812 158.023438 146.441406 158.023438 95.003906 C 158.023438 43.566406 199.714844 1.875 251.152344 1.875 C 302.589844 1.875 344.285156 43.566406 344.285156 95.003906 C 344.285156 146.441406 302.589844 188.132812 251.152344 188.132812 Z M 251.152344 30.785156 C 215.691406 30.785156 186.777344 59.699219 186.777344 95.164062 C 186.777344 130.625 215.691406 159.539062 251.152344 159.539062 C 286.617188 159.539062 315.53125 130.625 315.53125 95.164062 C 315.53125 59.699219 286.617188 30.785156 251.152344 30.785156 Z M 251.152344 30.785156 "/></g><g clip-rule="nonzero" clip-path="url(#361733dabc)"><path style=" stroke:none;fill-rule:nonzero;fill:#ff7145;fill-opacity:1;" d="M 1928.457031 1087.007812 C 1877.179688 1087.007812 1835.324219 1045.316406 1835.324219 993.878906 C 1835.324219 942.441406 1877.019531 900.746094 1928.457031 900.746094 C 1979.894531 900.746094 2021.585938 942.441406 2021.585938 993.878906 C 2021.585938 1045.316406 1979.894531 1087.007812 1928.457031 1087.007812 Z M 1928.457031 929.660156 C 1892.992188 929.660156 1864.078125 958.574219 1864.078125 994.039062 C 1864.078125 1029.5 1892.992188 1058.414062 1928.457031 1058.414062 C 1963.917969 1058.414062 1992.832031 1029.5 1992.832031 994.039062 C 1992.832031 958.414062 1963.917969 929.660156 1928.457031 929.660156 Z M 1928.457031 929.660156 "/></g><path style=" stroke:none;fill-rule:nonzero;fill:#ff7145;fill-opacity:1;" d="M 818.082031 993.878906 C 818.082031 995.667969 817.996094 997.453125 817.820312 999.234375 C 817.644531 1001.011719 817.382812 1002.78125 817.03125 1004.535156 C 816.683594 1006.289062 816.25 1008.023438 815.730469 1009.738281 C 815.210938 1011.449219 814.609375 1013.132812 813.921875 1014.785156 C 813.238281 1016.4375 812.476562 1018.054688 811.632812 1019.632812 C 810.789062 1021.210938 809.867188 1022.742188 808.875 1024.230469 C 807.878906 1025.71875 806.816406 1027.152344 805.679688 1028.535156 C 804.546875 1029.917969 803.347656 1031.242188 802.082031 1032.507812 C 800.816406 1033.773438 799.492188 1034.972656 798.109375 1036.109375 C 796.726562 1037.246094 795.289062 1038.308594 793.800781 1039.304688 C 792.3125 1040.296875 790.78125 1041.214844 789.203125 1042.058594 C 787.625 1042.902344 786.007812 1043.667969 784.355469 1044.351562 C 782.703125 1045.035156 781.019531 1045.636719 779.308594 1046.15625 C 777.597656 1046.675781 775.863281 1047.109375 774.109375 1047.460938 C 772.351562 1047.808594 770.585938 1048.070312 768.804688 1048.246094 C 767.023438 1048.421875 765.238281 1048.511719 763.449219 1048.511719 C 761.660156 1048.511719 759.875 1048.421875 758.09375 1048.246094 C 756.3125 1048.070312 754.546875 1047.808594 752.792969 1047.460938 C 751.035156 1047.109375 749.304688 1046.675781 747.589844 1046.15625 C 745.878906 1045.636719 744.195312 1045.035156 742.542969 1044.351562 C 740.890625 1043.667969 739.273438 1042.902344 737.695312 1042.058594 C 736.117188 1041.214844 734.585938 1040.296875 733.097656 1039.304688 C 731.609375 1038.308594 730.175781 1037.246094 728.792969 1036.109375 C 727.410156 1034.972656 726.085938 1033.773438 724.820312 1032.507812 C 723.554688 1031.242188 722.351562 1029.917969 721.21875 1028.535156 C 720.082031 1027.152344 719.019531 1025.71875 718.023438 1024.230469 C 717.03125 1022.742188 716.113281 1021.210938 715.269531 1019.632812 C 714.425781 1018.054688 713.660156 1016.4375 712.976562 1014.785156 C 712.292969 1013.132812 711.6875 1011.449219 711.167969 1009.738281 C 710.652344 1008.023438 710.214844 1006.289062 709.867188 1004.535156 C 709.519531 1002.78125 709.257812 1001.011719 709.082031 999.234375 C 708.90625 997.453125 708.816406 995.667969 708.816406 993.878906 C 708.816406 992.089844 708.90625 990.304688 709.082031 988.523438 C 709.257812 986.742188 709.519531 984.976562 709.867188 983.21875 C 710.214844 981.464844 710.652344 979.730469 711.171875 978.019531 C 711.6875 976.308594 712.292969 974.625 712.976562 972.972656 C 713.660156 971.316406 714.425781 969.703125 715.269531 968.125 C 716.113281 966.546875 717.03125 965.011719 718.023438 963.527344 C 719.019531 962.039062 720.082031 960.601562 721.21875 959.21875 C 722.351562 957.835938 723.554688 956.511719 724.820312 955.246094 C 726.085938 953.980469 727.40625 952.78125 728.792969 951.648438 C 730.175781 950.511719 731.609375 949.445312 733.097656 948.453125 C 734.585938 947.460938 736.117188 946.539062 737.695312 945.695312 C 739.273438 944.851562 740.890625 944.089844 742.542969 943.402344 C 744.195312 942.71875 745.878906 942.117188 747.589844 941.597656 C 749.304688 941.078125 751.035156 940.644531 752.792969 940.296875 C 754.546875 939.945312 756.3125 939.683594 758.09375 939.507812 C 759.875 939.332031 761.660156 939.246094 763.449219 939.246094 C 765.238281 939.246094 767.023438 939.332031 768.804688 939.507812 C 770.585938 939.683594 772.351562 939.945312 774.109375 940.296875 C 775.863281 940.644531 777.597656 941.078125 779.308594 941.597656 C 781.019531 942.117188 782.703125 942.71875 784.355469 943.40625 C 786.007812 944.089844 787.625 944.851562 789.203125 945.695312 C 790.78125 946.539062 792.3125 947.460938 793.800781 948.453125 C 795.289062 949.445312 796.726562 950.511719 798.109375 951.648438 C 799.492188 952.78125 800.816406 953.980469 802.082031 955.246094 C 803.347656 956.511719 804.546875 957.835938 805.679688 959.21875 C 806.816406 960.601562 807.878906 962.039062 808.875 963.527344 C 809.867188 965.011719 810.789062 966.546875 811.632812 968.125 C 812.472656 969.703125 813.238281 971.316406 813.921875 972.972656 C 814.609375 974.625 815.210938 976.308594 815.730469 978.019531 C 816.25 979.730469 816.683594 981.464844 817.03125 983.21875 C 817.382812 984.976562 817.644531 986.742188 817.820312 988.523438 C 817.996094 990.304688 818.082031 992.089844 818.082031 993.878906 Z M 818.082031 993.878906 "/><path style=" stroke:none;fill-rule:nonzero;fill:#ff7145;fill-opacity:1;" d="M 1568.394531 173.757812 C 1568.394531 175.546875 1568.308594 177.332031 1568.132812 179.113281 C 1567.957031 180.890625 1567.695312 182.660156 1567.34375 184.414062 C 1566.996094 186.167969 1566.5625 187.902344 1566.042969 189.617188 C 1565.523438 191.328125 1564.921875 193.011719 1564.238281 194.664062 C 1563.550781 196.316406 1562.789062 197.933594 1561.945312 199.511719 C 1561.101562 201.089844 1560.183594 202.621094 1559.1875 204.109375 C 1558.195312 205.597656 1557.128906 207.03125 1555.996094 208.414062 C 1554.859375 209.796875 1553.660156 211.121094 1552.394531 212.386719 C 1551.128906 213.652344 1549.804688 214.851562 1548.421875 215.988281 C 1547.039062 217.121094 1545.601562 218.1875 1544.113281 219.179688 C 1542.628906 220.175781 1541.09375 221.09375 1539.515625 221.9375 C 1537.9375 222.78125 1536.324219 223.546875 1534.667969 224.230469 C 1533.015625 224.914062 1531.335938 225.515625 1529.621094 226.035156 C 1527.910156 226.554688 1526.175781 226.992188 1524.421875 227.339844 C 1522.667969 227.6875 1520.898438 227.949219 1519.117188 228.125 C 1517.335938 228.300781 1515.550781 228.390625 1513.761719 228.390625 C 1511.972656 228.390625 1510.1875 228.300781 1508.40625 228.125 C 1506.628906 227.949219 1504.859375 227.6875 1503.105469 227.339844 C 1501.351562 226.992188 1499.617188 226.554688 1497.902344 226.035156 C 1496.191406 225.515625 1494.507812 224.914062 1492.855469 224.230469 C 1491.203125 223.546875 1489.585938 222.78125 1488.007812 221.9375 C 1486.429688 221.09375 1484.898438 220.175781 1483.410156 219.179688 C 1481.921875 218.1875 1480.488281 217.125 1479.105469 215.988281 C 1477.722656 214.851562 1476.398438 213.652344 1475.132812 212.386719 C 1473.867188 211.121094 1472.667969 209.796875 1471.53125 208.414062 C 1470.398438 207.03125 1469.332031 205.597656 1468.339844 204.109375 C 1467.34375 202.621094 1466.425781 201.089844 1465.582031 199.511719 C 1464.738281 197.933594 1463.972656 196.316406 1463.289062 194.664062 C 1462.605469 193.011719 1462.003906 191.328125 1461.484375 189.617188 C 1460.964844 187.902344 1460.53125 186.167969 1460.179688 184.414062 C 1459.832031 182.660156 1459.570312 180.890625 1459.394531 179.113281 C 1459.21875 177.332031 1459.132812 175.546875 1459.132812 173.757812 C 1459.132812 171.96875 1459.21875 170.183594 1459.394531 168.402344 C 1459.570312 166.621094 1459.832031 164.855469 1460.179688 163.097656 C 1460.53125 161.34375 1460.964844 159.609375 1461.484375 157.898438 C 1462.003906 156.1875 1462.605469 154.503906 1463.289062 152.851562 C 1463.972656 151.195312 1464.738281 149.582031 1465.582031 148.003906 C 1466.425781 146.425781 1467.34375 144.890625 1468.339844 143.40625 C 1469.332031 141.917969 1470.398438 140.480469 1471.53125 139.097656 C 1472.667969 137.714844 1473.867188 136.390625 1475.132812 135.125 C 1476.398438 133.859375 1477.722656 132.660156 1479.105469 131.527344 C 1480.488281 130.390625 1481.921875 129.324219 1483.410156 128.332031 C 1484.898438 127.335938 1486.429688 126.417969 1488.007812 125.574219 C 1489.585938 124.730469 1491.203125 123.96875 1492.855469 123.28125 C 1494.507812 122.597656 1496.191406 121.996094 1497.902344 121.476562 C 1499.617188 120.957031 1501.351562 120.523438 1503.105469 120.175781 C 1504.859375 119.824219 1506.628906 119.5625 1508.40625 119.386719 C 1510.1875 119.210938 1511.972656 119.125 1513.761719 119.125 C 1515.550781 119.125 1517.335938 119.210938 1519.117188 119.386719 C 1520.898438 119.5625 1522.667969 119.824219 1524.421875 120.175781 C 1526.175781 120.523438 1527.910156 120.957031 1529.621094 121.476562 C 1531.335938 121.996094 1533.015625 122.597656 1534.667969 123.28125 C 1536.324219 123.96875 1537.9375 124.730469 1539.515625 125.574219 C 1541.09375 126.417969 1542.628906 127.335938 1544.113281 128.332031 C 1545.601562 129.324219 1547.039062 130.390625 1548.421875 131.527344 C 1549.804688 132.660156 1551.128906 133.859375 1552.394531 135.125 C 1553.660156 136.390625 1554.859375 137.714844 1555.996094 139.097656 C 1557.128906 140.480469 1558.195312 141.917969 1559.1875 143.40625 C 1560.183594 144.890625 1561.101562 146.425781 1561.945312 148.003906 C 1562.789062 149.582031 1563.550781 151.195312 1564.238281 152.851562 C 1564.921875 154.503906 1565.523438 156.1875 1566.042969 157.898438 C 1566.5625 159.609375 1566.996094 161.34375 1567.34375 163.097656 C 1567.695312 164.855469 1567.957031 166.621094 1568.132812 168.402344 C 1568.308594 170.183594 1568.394531 171.96875 1568.394531 173.757812 Z M 1568.394531 173.757812 "/></g><mask id="bf8b456f4f"><g filter="url(#e222c81647)"><rect x="0" width="2250" y="0" height="1124.99995" style="fill:#000000;fill-opacity:0.1;stroke:none;"/></g></mask></g></g></svg>